<mxfile host="app.diagrams.net" agent="Mozilla/5.0 (Windows NT 10.0; Win64; x64) AppleWebKit/537.36 (KHTML, like Gecko) Chrome/128.0.0.0 Safari/537.36 OPR/114.0.0.0" version="26.0.7">
  <diagram name="Page-1" id="929967ad-93f9-6ef4-fab6-5d389245f69c">
    <mxGraphModel dx="1248" dy="1808" grid="1" gridSize="10" guides="1" tooltips="1" connect="1" arrows="1" fold="1" page="1" pageScale="1.5" pageWidth="1169" pageHeight="826" background="none" math="0" shadow="0">
      <root>
        <mxCell id="0" style=";html=1;" />
        <mxCell id="1" style=";html=1;" parent="0" />
        <mxCell id="1672d66443f91eb5-1" value="&lt;p style=&quot;margin: 0px ; margin-top: 4px ; margin-left: 10px ; text-align: left&quot;&gt;&lt;b&gt;req&lt;/b&gt; [Model] PremiumGalop[Communication]&lt;/p&gt;" style="html=1;strokeWidth=1;shape=mxgraph.sysml.package;html=1;overflow=fill;whiteSpace=wrap;fillColor=none;gradientColor=none;fontSize=12;align=center;labelX=327.64;" parent="1" vertex="1">
          <mxGeometry x="110" y="-70" width="1260" height="820" as="geometry" />
        </mxCell>
        <mxCell id="gL3Civ_0kA5RlNFKBFCX-1" value="" style="fontStyle=1;align=center;verticalAlign=middle;childLayout=stackLayout;horizontal=1;horizontalStack=0;resizeParent=1;resizeParentMax=0;resizeLast=0;marginBottom=0;" parent="1" vertex="1">
          <mxGeometry x="160" width="200" height="135" as="geometry" />
        </mxCell>
        <mxCell id="gL3Civ_0kA5RlNFKBFCX-2" value="&amp;lt;&amp;lt;requirement&amp;gt;&amp;gt;" style="html=1;align=center;spacing=0;verticalAlign=middle;strokeColor=none;fillColor=none;whiteSpace=wrap;spacingTop=3;" parent="gL3Civ_0kA5RlNFKBFCX-1" vertex="1">
          <mxGeometry width="200" height="16" as="geometry" />
        </mxCell>
        <mxCell id="gL3Civ_0kA5RlNFKBFCX-3" value="System de Communication" style="html=1;align=center;spacing=0;verticalAlign=middle;strokeColor=none;fillColor=none;whiteSpace=wrap;fontStyle=1" parent="gL3Civ_0kA5RlNFKBFCX-1" vertex="1">
          <mxGeometry y="16" width="200" height="27" as="geometry" />
        </mxCell>
        <mxCell id="gL3Civ_0kA5RlNFKBFCX-4" value="" style="line;strokeWidth=0.25;fillColor=none;align=left;verticalAlign=middle;spacingTop=-1;spacingLeft=3;spacingRight=3;rotatable=0;labelPosition=right;points=[];portConstraint=eastwest;" parent="gL3Civ_0kA5RlNFKBFCX-1" vertex="1">
          <mxGeometry y="43" width="200" height="8" as="geometry" />
        </mxCell>
        <mxCell id="gL3Civ_0kA5RlNFKBFCX-5" value="text=&quot;Récupérer la géolocalitation et l&#39;orientation puis transmettre les données et ou reçevoir&quot;" style="html=1;align=left;spacing=0;verticalAlign=middle;strokeColor=none;fillColor=none;whiteSpace=wrap;spacingLeft=10;" parent="gL3Civ_0kA5RlNFKBFCX-1" vertex="1">
          <mxGeometry y="51" width="200" height="42" as="geometry" />
        </mxCell>
        <mxCell id="gL3Civ_0kA5RlNFKBFCX-6" value="Id=&quot;1&quot;" style="html=1;align=left;spacing=0;verticalAlign=middle;strokeColor=none;fillColor=none;whiteSpace=wrap;spacingLeft=10;" parent="gL3Civ_0kA5RlNFKBFCX-1" vertex="1">
          <mxGeometry y="93" width="200" height="16" as="geometry" />
        </mxCell>
        <mxCell id="gL3Civ_0kA5RlNFKBFCX-7" value="" style="html=1;align=center;spacing=0;verticalAlign=middle;strokeColor=none;fillColor=none;whiteSpace=wrap;" parent="gL3Civ_0kA5RlNFKBFCX-1" vertex="1">
          <mxGeometry y="109" width="200" height="26" as="geometry" />
        </mxCell>
        <mxCell id="gL3Civ_0kA5RlNFKBFCX-18" value="" style="rounded=0;html=1;labelBackgroundColor=none;endArrow=none;edgeStyle=elbowEdgeStyle;elbow=vertical;startArrow=sysMLPackCont;startSize=12;exitX=1;exitY=0.5;exitDx=0;exitDy=0;entryX=0;entryY=0.5;entryDx=0;entryDy=0;" parent="1" source="gL3Civ_0kA5RlNFKBFCX-5" edge="1">
          <mxGeometry relative="1" as="geometry">
            <mxPoint x="840" y="-160" as="sourcePoint" />
            <mxPoint x="440" y="72" as="targetPoint" />
            <Array as="points" />
          </mxGeometry>
        </mxCell>
        <mxCell id="gL3Civ_0kA5RlNFKBFCX-19" value="" style="rounded=0;html=1;labelBackgroundColor=none;endArrow=none;edgeStyle=elbowEdgeStyle;elbow=vertical;startArrow=sysMLPackCont;startSize=12;entryX=0;entryY=0.25;entryDx=0;entryDy=0;exitX=0.5;exitY=1;exitDx=0;exitDy=0;" parent="1" source="gL3Civ_0kA5RlNFKBFCX-7" edge="1">
          <mxGeometry relative="1" as="geometry">
            <mxPoint x="740" y="200" as="sourcePoint" />
            <mxPoint x="440" y="241.5" as="targetPoint" />
            <Array as="points">
              <mxPoint x="360" y="240" />
            </Array>
          </mxGeometry>
        </mxCell>
        <mxCell id="gL3Civ_0kA5RlNFKBFCX-34" value="" style="rounded=0;html=1;labelBackgroundColor=none;endArrow=none;edgeStyle=elbowEdgeStyle;elbow=vertical;startArrow=sysMLPackCont;startSize=12;entryX=0;entryY=0.5;entryDx=0;entryDy=0;exitX=0.5;exitY=1;exitDx=0;exitDy=0;" parent="1" source="gL3Civ_0kA5RlNFKBFCX-7" edge="1">
          <mxGeometry relative="1" as="geometry">
            <mxPoint x="190" y="286.5" as="sourcePoint" />
            <mxPoint x="440" y="442" as="targetPoint" />
            <Array as="points">
              <mxPoint x="350" y="430" />
            </Array>
          </mxGeometry>
        </mxCell>
        <mxCell id="gL3Civ_0kA5RlNFKBFCX-42" value="" style="rounded=0;html=1;labelBackgroundColor=none;endArrow=none;edgeStyle=elbowEdgeStyle;elbow=vertical;startArrow=sysMLPackCont;startSize=12;entryX=0;entryY=0.5;entryDx=0;entryDy=0;exitX=0.5;exitY=1;exitDx=0;exitDy=0;" parent="1" source="gL3Civ_0kA5RlNFKBFCX-7" edge="1">
          <mxGeometry relative="1" as="geometry">
            <mxPoint x="250" y="300" as="sourcePoint" />
            <mxPoint x="440" y="624" as="targetPoint" />
            <Array as="points">
              <mxPoint x="350" y="624" />
            </Array>
          </mxGeometry>
        </mxCell>
      </root>
    </mxGraphModel>
  </diagram>
</mxfile>
